<?xml version="1.0" encoding="utf-8"?>
<!-- Generator: Adobe Illustrator 22.1.0, SVG Export Plug-In . SVG Version: 6.00 Build 0)  -->
<svg version="1.1" id="Capa_1" xmlns="http://www.w3.org/2000/svg" xmlns:xlink="http://www.w3.org/1999/xlink" x="0px" y="0px"
	 viewBox="0 0 159.4 159.4" style="enable-background:new 0 0 159.4 159.4;" xml:space="preserve">
<style type="text/css">
	.st0{fill:#FD4101;}
	.st1{fill:#FFFFFF;}
</style>
<g>
	<circle class="st0" cx="79.7" cy="79.7" r="79.7"/>
	<g>
		<path class="st1" d="M81.7,97.6c3.5,3.5,3.5,9.6,0,13.1l-7.3,7.3c-3.5,3.5-9.6,3.5-13.1,0L29.4,85.8c-3.5-3.5-3.5-9.6,0-13.1
			l7.3-7.3c3.5-3.5,9.6-3.5,13.1,0L81.7,97.6z"/>
		<path class="st1" d="M109.6,42c3.5-3.5,9.6-3.5,13.1,0l7.3,7.3c3.5,3.5,3.5,9.6,0,13.1l-55.3,55.1c-3.5,3.5-9.6,3.5-13.1,0
			l-7.3-7.3c-3.5-3.5-3.5-9.6,0-13.1L109.6,42z"/>
	</g>
</g>
</svg>
