<?xml version="1.0" encoding="utf-8"?>
<!-- Generator: Adobe Illustrator 22.1.0, SVG Export Plug-In . SVG Version: 6.00 Build 0)  -->
<svg version="1.1" id="Capa_1" xmlns="http://www.w3.org/2000/svg" xmlns:xlink="http://www.w3.org/1999/xlink" x="0px" y="0px"
	 viewBox="0 0 109.8 200.3" style="enable-background:new 0 0 109.8 200.3;" xml:space="preserve">
<style type="text/css">
	.st0{fill:#F9FBFC;}
	.st1{fill:#FD4101;}
	.st2{opacity:0.15;fill:#333333;}
	.st3{fill:#1A2361;}
	.st4{fill:#1A53A6;}
	.st5{fill:#1A237F;}
	.st6{fill:url(#SVGID_1_);}
	.st7{fill:url(#SVGID_2_);}
	.st8{fill:url(#SVGID_3_);}
	.st9{fill:url(#SVGID_4_);}
	.st10{fill:url(#SVGID_5_);}
	.st11{fill:url(#SVGID_6_);}
	.st12{fill:url(#SVGID_7_);}
	.st13{fill:url(#SVGID_8_);}
</style>
<g>
	<g>
		<path class="st0" d="M44.5,41.1c0,0-0.7,21.3,4.4,30.4c5.1,9.1,33,20.2,33,20.2s-0.7,3.6-4.4,5.1c0,0-6.6,1.1-8.7-1.1
			c-2.2-2.2-3.6-3.6-3.6-3.6s-19.3-6.2-24.8-12c-5.5-5.8-6.8-33-6.9-37.9C33.2,36.1,43.8,35.2,44.5,41.1z"/>
		<path class="st1" d="M38,36.1c0,0,8.7-0.5,8.7,8.5c0,9,0.8,24.3,6.6,28.7c5.7,4.4,16.9,12.6,16.9,12.6l-5.7,7.4
			c0,0-22.4-9.3-26.8-13.4c-4.4-4.1-7.1-33-6.3-37.4C32.2,38.1,34.1,35,38,36.1z"/>
	</g>
	<path class="st2" d="M77.7,119.7l0.3,34.5c0,0,9.1,36.8,12,38.2c2.9,1.5,6.2,4.4,3.3,6.6c-2.9,2.2-42.6,3.3-47-10.2
		c-4.1-12.7-9.6-60.2-16.3-69.1H77.7z"/>
	<g>
		<path class="st0" d="M96.9,162.6c0,0,1.9,4.1,2.8,5.9c0.9,1.8,9.8,4.8,10.1,8.1c-0.5,3.2-15.4-0.5-17.5-2.8
			c-2.1-2.4-2.8-9.2-2.8-9.2L96.9,162.6z"/>
		<g>
			<path class="st3" d="M33.6,94.3c0,0,34.6-7.2,43.4,2.4c8.8,9.6,20.8,62.2,20.8,62.2s-3,5.7-11.6,2.1l-19.2-42.7
				c-1.1-2.6-3.8-4-6.5-3.3c-10.2,2.5-33.8,7.6-38.6,1.3c-3.7-4.9-4.7-8.9-5.3-13.8c-0.4-3,1.7-5.8,4.7-6.3L33.6,94.3z"/>
			<path class="st4" d="M99.2,156.5c0,0-8.9,0.4-14.4,4.4l2,6.3c0,0,6.1-1.7,13.3-4.2L99.2,156.5z"/>
		</g>
	</g>
	<g>
		<path class="st0" d="M67.8,173.2c0,0,1.1,4.4,1.6,6.3c0.5,1.9,8.7,6.6,8.5,9.8c-1.1,3-15-3.3-16.7-6c-1.6-2.7-1.1-9.6-1.1-9.6
			L67.8,173.2z"/>
		<g>
			<path class="st5" d="M18.2,94.5c0,0,35.3-0.7,42.2,10.3c6.9,11.1,9,65,9,65s-4,5-11.8-0.1l-11-45.5c-0.6-2.7-3-4.6-5.8-4.5
				c-10.4,0.6-34.6,1.3-38.1-5.8c-2.7-5.5-3-9.6-2.7-14.5c0.2-3.1,2.8-5.4,5.8-5.3L18.2,94.5z"/>
			<path class="st4" d="M71.2,167.7c0,0-8.8-1.3-15,1.7l0.8,6.5c0,0,6.3-0.5,13.9-1.6L71.2,167.7z"/>
		</g>
	</g>
	<linearGradient id="SVGID_1_" gradientUnits="userSpaceOnUse" x1="0.2523" y1="65.791" x2="48.17" y2="65.791">
		<stop  offset="0" style="stop-color:#FBC93B"/>
		<stop  offset="1" style="stop-color:#FB8E31"/>
	</linearGradient>
	<path class="st6" d="M9.4,37.5c0,0-10.7,19.8-8.9,58.8c1.8,4.7,19.3,3.6,27.3,0.7c8-2.9,17.5-1.5,20-2.2c2.5-0.7-8.9-27.5-2.7-51.2
		c0,0,0.7-4.7-2.9-7.6S15.2,28,9.4,37.5z"/>
	<path class="st0" d="M36.7,34.2l-1.1,5.5c0,0-2.7,3.3-9,0c-5.7-3.5-4.9-7.6-4.9-7.6l6-9.6L36.7,34.2z"/>
	
		<linearGradient id="SVGID_2_" gradientUnits="userSpaceOnUse" x1="193.699" y1="16.7629" x2="201.69" y2="33.8346" gradientTransform="matrix(-1 0 0 1 231.7565 0)">
		<stop  offset="0" style="stop-color:#FFFFFF"/>
		<stop  offset="1" style="stop-color:#E6E8EC"/>
	</linearGradient>
	<path class="st7" d="M25.7,25.4l2-3l9,11.7l-1.1,5.5c0,0-0.1,0.1-0.2,0.2C27.8,37.3,26.4,29.7,25.7,25.4z"/>
	<path class="st0" d="M47.4,15.4c0,0-2.3,15.2-8.6,21c-6.3,4.6-10.9-6-12.9-12.1c-2-6-2-16.1,6-20.1C39.9,0.2,48.5,6.8,47.4,15.4z"
		/>
	<g>
		<path class="st0" d="M18.8,41.1c0,0-0.7,21.3,4.4,30.4c5.1,9.1,33,20.2,33,20.2s-0.7,3.6-4.4,5.1c0,0-6.6,1.1-8.7-1.1
			c-2.2-2.2-3.6-3.6-3.6-3.6s-19.3-6.2-24.8-12c-5.5-5.8-6.8-33-6.9-37.9C7.6,36.1,18.1,35.2,18.8,41.1z"/>
		<path class="st1" d="M12.3,36.1c0,0,8.7-0.5,8.7,8.5c0,9,0.8,24.3,6.6,28.7c5.7,4.4,16.9,12.6,16.9,12.6l-5.7,7.4
			c0,0-22.4-9.3-26.8-13.4c-4.4-4.1-7.1-33-6.3-37.4C6.6,38.1,8.5,35,12.3,36.1z"/>
	</g>
	<g>
		
			<linearGradient id="SVGID_3_" gradientUnits="userSpaceOnUse" x1="196.2033" y1="61.0149" x2="165.6183" y2="98.8821" gradientTransform="matrix(-1 0 0 1 231.7565 0)">
			<stop  offset="0" style="stop-color:#000000;stop-opacity:0"/>
			<stop  offset="8.061235e-02" style="stop-color:#010708;stop-opacity:8.576000e-02"/>
			<stop  offset="0.2053" style="stop-color:#031B1E;stop-opacity:0.2184"/>
			<stop  offset="0.3585" style="stop-color:#073B41;stop-opacity:0.3814"/>
			<stop  offset="0.5342" style="stop-color:#0C6773;stop-opacity:0.5683"/>
			<stop  offset="0.7291" style="stop-color:#12A0B2;stop-opacity:0.7756"/>
			<stop  offset="0.9373" style="stop-color:#1AE4FE;stop-opacity:0.9971"/>
			<stop  offset="0.94" style="stop-color:#1AE5FF"/>
		</linearGradient>
		<path class="st8" d="M91.8,77.7L71,42.8c0,0-40.8,0.4-52.8,29.5l-1.1,28l29.1,1.1L91.8,77.7z"/>
		<g>
			
				<linearGradient id="SVGID_4_" gradientUnits="userSpaceOnUse" x1="181.6936" y1="94.8181" x2="190.842" y2="111.1405" gradientTransform="matrix(-0.9998 1.740000e-02 1.740000e-02 0.9998 230.3985 -1.7289)">
				<stop  offset="0" style="stop-color:#2CE7C7"/>
				<stop  offset="1" style="stop-color:#005BFF"/>
			</linearGradient>
			<path class="st9" d="M27.4,102.2l41.1-0.7c0.6,0,1.1-0.5,1.1-1.1l0,0c0-0.6-0.5-1.1-1.1-1.1l-41.1,0.7c-0.6,0-1.1,0.5-1.1,1.1
				l0,0C26.3,101.8,26.8,102.2,27.4,102.2z"/>
			<g>
				
					<linearGradient id="SVGID_5_" gradientUnits="userSpaceOnUse" x1="161.2776" y1="78.4486" x2="180.2574" y2="112.3118" gradientTransform="matrix(-0.9998 1.740000e-02 1.740000e-02 0.9998 230.3985 -1.7289)">
					<stop  offset="0" style="stop-color:#2CE7C7"/>
					<stop  offset="1" style="stop-color:#005BFF"/>
				</linearGradient>
				<path class="st10" d="M40.2,100.7l11.2-23.4c0.2-0.3,0.5-0.5,0.8-0.5L89.7,76c0.7,0,1.2,0.7,0.9,1.3l-11.2,23.4
					c-0.2,0.3-0.5,0.5-0.8,0.5L41.1,102C40.4,102,39.9,101.3,40.2,100.7z"/>
				
					<linearGradient id="SVGID_6_" gradientUnits="userSpaceOnUse" x1="153.151" y1="60.7505" x2="170.6288" y2="101.9872" gradientTransform="matrix(-0.9998 1.740000e-02 1.740000e-02 0.9998 230.3985 -1.7289)">
					<stop  offset="0" style="stop-color:#FFFFFF"/>
					<stop  offset="1" style="stop-color:#E6E8EC"/>
				</linearGradient>
				<path class="st11" d="M42.1,100.6l11.2-23.4c0.2-0.3,0.5-0.5,0.8-0.5L91.7,76c0.7,0,1.2,0.7,0.9,1.3l-11.2,23.4
					c-0.2,0.3-0.5,0.5-0.8,0.5L43,102C42.3,102,41.8,101.3,42.1,100.6z"/>
			</g>
		</g>
	</g>
	<linearGradient id="SVGID_7_" gradientUnits="userSpaceOnUse" x1="23.5269" y1="14.4744" x2="51.6379" y2="14.4744">
		<stop  offset="0" style="stop-color:#FBC93B"/>
		<stop  offset="1" style="stop-color:#FB8E31"/>
	</linearGradient>
	<path class="st12" d="M25.7,25.4c0,0-3.1-6.9-2-14.5S33.2,0.2,37.1,0c3.8-0.2,14.2,9.5,14.6,12.6c0.4,3.1-4.2,5.5-4.2,5.5
		s-5.3,2.4-8.9,1.3c-3.6-1.1-5.3-2.4-5.3-2.4l-2,3.5c0,0,0-2.7-1.8-2.5c-1.8,0.2-2.4,5.5-0.9,6c1.5,0.5,1.3,1.1,1.3,1.1l-2.5,4
		C27.2,28.9,25.9,26.5,25.7,25.4z"/>
	<linearGradient id="SVGID_8_" gradientUnits="userSpaceOnUse" x1="30.4027" y1="21.4213" x2="39.3357" y2="43.224">
		<stop  offset="0" style="stop-color:#FBC93B"/>
		<stop  offset="1" style="stop-color:#FB8E31"/>
	</linearGradient>
	<path class="st13" d="M29.4,33c0,0,1-0.8,2.3,0.3c1.4,1.1,3.3-1.1,4.1-1.2c0.8-0.1,3.8-1,5.2,0.7c1.4,1.6-3.7,6-5.1,5.9
		C34.5,38.5,29.9,37.1,29.4,33z"/>
</g>
</svg>
