<?xml version="1.0" encoding="utf-8"?>
<!-- Generator: Adobe Illustrator 22.1.0, SVG Export Plug-In . SVG Version: 6.00 Build 0)  -->
<svg version="1.1" id="Capa_1" xmlns="http://www.w3.org/2000/svg" xmlns:xlink="http://www.w3.org/1999/xlink" x="0px" y="0px"
	 viewBox="0 0 95.1 199.9" style="enable-background:new 0 0 95.1 199.9;" xml:space="preserve">
<style type="text/css">
	.st0{opacity:0.15;fill:#333333;}
	.st1{fill:#F9FBFC;}
	.st2{fill:url(#SVGID_1_);}
	.st3{fill:#1A2361;}
	.st4{fill:#1A53A6;}
	.st5{fill:#1A237F;}
	.st6{fill:url(#SVGID_2_);}
	.st7{fill:url(#SVGID_3_);}
	.st8{fill:url(#SVGID_4_);}
	.st9{fill:url(#SVGID_5_);}
	.st10{fill:url(#SVGID_6_);}
	.st11{fill:url(#SVGID_7_);}
	.st12{fill:url(#SVGID_8_);}
	.st13{fill:#FD4101;}
</style>
<g>
	<path class="st0" d="M17.4,119.4l-0.3,34.5c0,0-9.1,36.8-12,38.2c-2.9,1.5-6.2,4.4-3.3,6.6c2.9,2.2,42.6,3.3,47-10.2
		c4.1-12.7,9.6-60.2,16.3-69.1H17.4z"/>
	<path class="st1" d="M49,42.6c0,0,0.7,21.3-4.4,30.4c-5.1,9.1-33,20.2-33,20.2s0.7,3.6,4.4,5.1c0,0,6.6,1.1,8.7-1.1
		c2.2-2.2,3.6-3.6,3.6-3.6s19.3-6.2,24.8-12c5.5-5.8,6.8-33,6.9-37.9C60.3,37.7,49.7,36.8,49,42.6z"/>
	<linearGradient id="SVGID_1_" gradientUnits="userSpaceOnUse" x1="49.0218" y1="17.2618" x2="56.0356" y2="55.2388">
		<stop  offset="0" style="stop-color:#2CE7C7"/>
		<stop  offset="1" style="stop-color:#0079FF"/>
	</linearGradient>
	<path class="st2" d="M48.8,40.8l-1.2,15.6c0,0,7.4,2.4,13.3,1.5c0,0,0.9-14.1,0.9-17.8C61.8,35.7,52.4,30.9,48.8,40.8z"/>
	<g>
		<path class="st1" d="M10.1,172.9c0,0-1.1,4.4-1.6,6.3c-0.5,1.9-8.7,6.6-8.5,9.8c1.1,3,15-3.3,16.7-6c1.6-2.7,1.1-9.6,1.1-9.6
			L10.1,172.9z"/>
		<g>
			<path class="st3" d="M59.7,94.1c0,0-35.3-0.7-42.2,10.3c-6.9,11.1-9,65-9,65s4,5,11.8-0.1l11-45.5c0.6-2.7,3-4.6,5.8-4.5
				c10.4,0.6,34.6,1.3,38.1-5.8c2.7-5.5,3-9.6,2.7-14.5c-0.2-3.1-2.8-5.4-5.8-5.3L59.7,94.1z"/>
			<path class="st4" d="M6.7,167.4c0,0,8.8-1.3,15,1.7l-0.8,6.5c0,0-6.3-0.5-13.9-1.6L6.7,167.4z"/>
		</g>
	</g>
	<g>
		<path class="st1" d="M27.3,172.9c0,0-1.1,4.4-1.6,6.3c-0.5,1.9-8.7,6.6-8.5,9.8c1.1,3,15-3.3,16.7-6c1.6-2.7,1.1-9.6,1.1-9.6
			L27.3,172.9z"/>
		<g>
			<path class="st5" d="M76.9,94.1c0,0-35.3-0.7-42.2,10.3c-6.9,11.1-9,65-9,65s4,5,11.8-0.1l11-45.5c0.6-2.7,3-4.6,5.8-4.5
				c10.4,0.6,34.6,1.3,38.1-5.8c2.7-5.5,3-9.6,2.7-14.5c-0.2-3.1-2.8-5.4-5.8-5.3L76.9,94.1z"/>
			<path class="st4" d="M23.9,167.4c0,0,8.8-1.3,15,1.7l-0.8,6.5c0,0-6.3-0.5-13.9-1.6L23.9,167.4z"/>
		</g>
	</g>
	<linearGradient id="SVGID_2_" gradientUnits="userSpaceOnUse" x1="60.0885" y1="33.204" x2="84.1197" y2="140.7979">
		<stop  offset="0" style="stop-color:#2CE7C7"/>
		<stop  offset="1" style="stop-color:#0079FF"/>
	</linearGradient>
	<path class="st6" d="M85.8,37.1c0,0,10.7,19.8,8.9,58.8c-1.8,4.7-19.3,3.6-27.3,0.7s-17.5-1.5-20-2.2c-2.5-0.7,8.9-27.5,2.7-51.2
		c0,0-0.7-4.7,2.9-7.6S79.9,27.7,85.8,37.1z"/>
	<path class="st1" d="M76.3,40.7c0,0,0.7,21.3-4.4,30.4c-5.1,9.1-33,20.2-33,20.2s0.7,3.6,4.4,5.1c0,0,6.6,1.1,8.7-1.1
		c2.2-2.2,3.6-3.6,3.6-3.6s19.3-6.2,24.8-12c5.5-5.8,6.8-33,6.9-37.9C87.6,35.8,77,34.9,76.3,40.7z"/>
	<path class="st1" d="M58.4,33.9l1.1,5.5c0,0,2.7,3.3,9,0c5.7-3.5,4.9-7.6,4.9-7.6l-6-9.6L58.4,33.9z"/>
	<linearGradient id="SVGID_3_" gradientUnits="userSpaceOnUse" x1="57.0771" y1="16.4023" x2="65.0679" y2="33.4737">
		<stop  offset="0" style="stop-color:#FFFFFF"/>
		<stop  offset="1" style="stop-color:#E6E8EC"/>
	</linearGradient>
	<path class="st7" d="M69.4,25.1l-2-3l-9,11.7l1.1,5.5c0,0,0.1,0.1,0.2,0.2C67.4,36.9,68.7,29.3,69.4,25.1z"/>
	<path class="st1" d="M47.8,15.1c0,0,2.3,15.2,8.6,21c6.3,4.6,10.9-6,12.9-12.1s2-16.1-6-20.1C55.2-0.2,46.6,6.4,47.8,15.1z"/>
	<linearGradient id="SVGID_4_" gradientUnits="userSpaceOnUse" x1="40.3078" y1="-33.5591" x2="72.5312" y2="45.0878">
		<stop  offset="0" style="stop-color:#2CE7C7"/>
		<stop  offset="1" style="stop-color:#0079FF"/>
	</linearGradient>
	<path class="st8" d="M66.6,3.6c0,0-2.7-3.5-7.8-3.6c-5.1-0.2-12,4-14.2,8.9c-2.2,4.9,2.2,7.8,3.3,7.8c1.1,0,4.6,1.5,8.9-0.9
		c4.4-2.4,5.3-2.4,5.3-2.4s3.1,6.7,2.9,9.6l1.8-0.4c0,0-0.5-4.6,0.4-5.6c0.9-1.1,2.5,1.5,2,4.2c-0.5,2.7-0.5,3.3-0.5,3.3l0.8,0.5
		c0,0,3.4-7.1,3.4-11.1S73,2.7,66.6,3.6z"/>
	<linearGradient id="SVGID_5_" gradientUnits="userSpaceOnUse" x1="75.6002" y1="15.9294" x2="83.0643" y2="56.3451">
		<stop  offset="0" style="stop-color:#2CE7C7"/>
		<stop  offset="1" style="stop-color:#0079FF"/>
	</linearGradient>
	<path class="st9" d="M75.4,41l-1.3,16.6c0,0,7.8,2.5,14.2,1.6c0,0,0.9-15,0.9-18.9C89.2,35.5,79.2,30.4,75.4,41z"/>
	<linearGradient id="SVGID_6_" gradientUnits="userSpaceOnUse" x1="60.5825" y1="60.6538" x2="29.9976" y2="98.5209">
		<stop  offset="0" style="stop-color:#000000;stop-opacity:0"/>
		<stop  offset="8.061235e-02" style="stop-color:#010708;stop-opacity:8.576000e-02"/>
		<stop  offset="0.2053" style="stop-color:#031B1E;stop-opacity:0.2184"/>
		<stop  offset="0.3585" style="stop-color:#073B41;stop-opacity:0.3814"/>
		<stop  offset="0.5342" style="stop-color:#0C6773;stop-opacity:0.5683"/>
		<stop  offset="0.7291" style="stop-color:#12A0B2;stop-opacity:0.7756"/>
		<stop  offset="0.9373" style="stop-color:#1AE4FE;stop-opacity:0.9971"/>
		<stop  offset="0.94" style="stop-color:#1AE5FF"/>
	</linearGradient>
	<path class="st10" d="M4.4,77.4l20.8-35c0,0,40.8,0.4,52.8,29.5l1.1,28L49.9,101L4.4,77.4z"/>
	<g>
		
			<linearGradient id="SVGID_7_" gradientUnits="userSpaceOnUse" x1="46.0731" y1="96.6974" x2="55.2216" y2="113.0198" gradientTransform="matrix(0.9998 1.740000e-02 -1.740000e-02 0.9998 1.3633 -1.6089)">
			<stop  offset="0" style="stop-color:#2CE7C7"/>
			<stop  offset="1" style="stop-color:#005BFF"/>
		</linearGradient>
		<path class="st11" d="M68.8,101.9l-41.1-0.7c-0.6,0-1.1-0.5-1-1.1l0,0c0-0.6,0.5-1.1,1.1-1.1l41.1,0.7c0.6,0,1.1,0.5,1.1,1.1l0,0
			C69.8,101.4,69.3,101.9,68.8,101.9z"/>
		<g>
			
				<linearGradient id="SVGID_8_" gradientUnits="userSpaceOnUse" x1="25.6571" y1="80.3279" x2="44.6369" y2="114.1911" gradientTransform="matrix(0.9998 1.740000e-02 -1.740000e-02 0.9998 1.3633 -1.6089)">
				<stop  offset="0" style="stop-color:#2CE7C7"/>
				<stop  offset="1" style="stop-color:#005BFF"/>
			</linearGradient>
			<path class="st12" d="M55.9,100.3L44.7,76.9c-0.2-0.3-0.5-0.5-0.8-0.5L6.4,75.7c-0.7,0-1.2,0.7-0.9,1.3l11.2,23.4
				c0.2,0.3,0.5,0.5,0.8,0.5l37.5,0.7C55.8,101.7,56.2,100.9,55.9,100.3z"/>
			<path class="st13" d="M54,100.3L42.8,76.8c-0.2-0.3-0.5-0.5-0.8-0.5L4.5,75.6c-0.7,0-1.2,0.7-0.9,1.3l11.2,23.4
				c0.2,0.3,0.5,0.5,0.8,0.5l37.5,0.7C53.9,101.6,54.3,100.9,54,100.3z"/>
		</g>
	</g>
</g>
</svg>
