<?xml version="1.0" encoding="utf-8"?>
<!-- Generator: Adobe Illustrator 22.1.0, SVG Export Plug-In . SVG Version: 6.00 Build 0)  -->
<svg version="1.1" id="Capa_1" xmlns="http://www.w3.org/2000/svg" xmlns:xlink="http://www.w3.org/1999/xlink" x="0px" y="0px"
	 viewBox="0 0 133.4 203.9" style="enable-background:new 0 0 133.4 203.9;" xml:space="preserve">
<style type="text/css">
	.st0{fill:#6B40EA;}
	.st1{fill:#F9FBFC;}
	.st2{fill:url(#SVGID_1_);}
	.st3{opacity:0.15;fill:#333333;}
	.st4{fill:#FD4101;}
	.st5{fill:#FBB03B;}
	.st6{fill:url(#SVGID_2_);}
	.st7{fill:url(#SVGID_3_);}
	.st8{fill:url(#SVGID_4_);}
	.st9{fill:url(#SVGID_5_);}
	.st10{fill:url(#SVGID_6_);}
	.st11{fill:url(#SVGID_7_);}
	.st12{fill:url(#SVGID_8_);}
</style>
<path class="st0" d="M75.1,11.3c0,0-5-10.8-17.2-11.3C45.7-0.4,48,13.1,39.8,19.4c-8.1,6.3-19,0-24.8,11.3
	C9.1,42,13.7,48.8,4.2,59.2c-9.5,10.4-1.8,30.7,12.6,35.2c14.4,4.5,32.5,2.7,38.4-15.4c5.9-18.1,2.7-32.1,9-38.4
	C70.5,34.3,82.3,25.3,75.1,11.3z"/>
<g>
	<g>
		<path class="st1" d="M68.1,44.6c0,0-0.7,21.3,4.4,30.4c5.1,9.1,33,20.2,33,20.2s-0.7,3.6-4.4,5.1c0,0-6.6,1.1-8.7-1.1
			c-2.2-2.2-3.6-3.6-3.6-3.6s-19.3-6.2-24.8-12c-5.5-5.8-6.8-33-6.9-37.9C56.8,39.7,67.4,38.8,68.1,44.6z"/>
		<linearGradient id="SVGID_1_" gradientUnits="userSpaceOnUse" x1="43.0908" y1="23.1821" x2="78.0051" y2="86.9911">
			<stop  offset="0" style="stop-color:#6B40EA"/>
			<stop  offset="1" style="stop-color:#FB8E31"/>
		</linearGradient>
		<path class="st2" d="M61.6,39.7c0,0,8.7-0.5,8.7,8.5c0,9,0.8,24.3,6.6,28.7c5.7,4.4,16.9,12.6,16.9,12.6L88,96.8
			c0,0-22.4-9.3-26.8-13.4c-4.4-4.1-7.1-33-6.3-37.4C55.8,41.6,57.7,38.6,61.6,39.7z"/>
	</g>
	<path class="st3" d="M101.3,123.3l0.3,34.5c0,0,9.1,36.8,12,38.2c2.9,1.5,6.2,4.4,3.3,6.6c-2.9,2.2-42.6,3.3-47-10.2
		c-4.1-12.7-9.6-60.2-16.3-69.1H101.3z"/>
	<g>
		<path class="st1" d="M120.5,166.1c0,0,1.9,4.1,2.8,5.9c0.9,1.8,9.8,4.8,10.1,8.1c-0.5,3.2-15.4-0.5-17.5-2.8s-2.8-9.2-2.8-9.2
			L120.5,166.1z"/>
		<g>
			<path class="st4" d="M57.2,97.8c0,0,34.6-7.2,43.4,2.4c8.8,9.6,20.8,62.2,20.8,62.2s-3,5.7-11.6,2.1l-19.2-42.7
				c-1.1-2.6-3.8-4-6.5-3.3c-10.2,2.5-33.8,7.6-38.6,1.3c-3.7-4.9-4.7-8.9-5.3-13.8c-0.4-3,1.7-5.8,4.7-6.3L57.2,97.8z"/>
			<path class="st5" d="M122.8,160.1c0,0-8.9,0.4-14.4,4.4l2,6.3c0,0,6.1-1.7,13.3-4.2L122.8,160.1z"/>
		</g>
	</g>
	<g>
		<path class="st1" d="M91.4,176.8c0,0,1.1,4.4,1.6,6.3c0.5,1.9,8.7,6.6,8.5,9.8c-1.1,3-15-3.3-16.7-6c-1.6-2.7-1.1-9.6-1.1-9.6
			L91.4,176.8z"/>
		<g>
			<path class="st4" d="M41.8,98c0,0,35.3-0.7,42.2,10.3c6.9,11.1,9,65,9,65s-4,5-11.8-0.1l-11-45.5c-0.6-2.7-3-4.6-5.8-4.5
				c-10.4,0.6-34.6,1.3-38.1-5.8c-2.7-5.5-3-9.6-2.7-14.5c0.2-3.1,2.8-5.4,5.8-5.3L41.8,98z"/>
			<path class="st5" d="M94.8,171.3c0,0-8.8-1.3-15,1.7l0.8,6.5c0,0,6.3-0.5,13.9-1.6L94.8,171.3z"/>
		</g>
	</g>
	
		<linearGradient id="SVGID_2_" gradientUnits="userSpaceOnUse" x1="-3200.3687" y1="37.1469" x2="-3176.3376" y2="144.7406" gradientTransform="matrix(-1 0 0 1 -3141.728 0)">
		<stop  offset="0" style="stop-color:#6B40EA"/>
		<stop  offset="1" style="stop-color:#FB8E31"/>
	</linearGradient>
	<path class="st6" d="M33,41.1c0,0-10.7,19.8-8.9,58.8c1.8,4.7,19.3,3.6,27.3,0.7c8-2.9,17.5-1.5,20-2.2c2.5-0.7-8.9-27.5-2.7-51.2
		c0,0,0.7-4.7-2.9-7.6S38.8,31.6,33,41.1z"/>
	<path class="st1" d="M60.3,37.8l-1.1,5.5c0,0-2.7,3.3-9,0c-5.7-3.5-4.9-7.6-4.9-7.6l6-9.6L60.3,37.8z"/>
	
		<linearGradient id="SVGID_3_" gradientUnits="userSpaceOnUse" x1="-3203.3801" y1="20.345" x2="-3195.3892" y2="37.4164" gradientTransform="matrix(-1 0 0 1 -3141.728 0)">
		<stop  offset="0" style="stop-color:#FFFFFF"/>
		<stop  offset="1" style="stop-color:#E6E8EC"/>
	</linearGradient>
	<path class="st7" d="M49.3,29l2-3l9,11.7l-1.1,5.5c0,0-0.1,0.1-0.2,0.2C51.3,40.9,50,33.3,49.3,29z"/>
	<path class="st1" d="M71,19c0,0-2.3,15.2-8.6,21c-6.3,4.6-10.9-6-12.9-12.1c-2-6-2-16.1,6-20.1C63.5,3.8,72.1,10.4,71,19z"/>
	<g>
		<path class="st1" d="M42.4,44.6c0,0-0.7,21.3,4.4,30.4c5.1,9.1,33,20.2,33,20.2s-0.7,3.6-4.4,5.1c0,0-6.6,1.1-8.7-1.1
			c-2.2-2.2-3.6-3.6-3.6-3.6s-19.3-6.2-24.8-12c-5.5-5.8-6.8-33-6.9-37.9C31.2,39.7,41.7,38.8,42.4,44.6z"/>
		<linearGradient id="SVGID_4_" gradientUnits="userSpaceOnUse" x1="29.1896" y1="68.146" x2="68.1117" y2="68.146">
			<stop  offset="0" style="stop-color:#6B40EA"/>
			<stop  offset="1" style="stop-color:#FB8E31"/>
		</linearGradient>
		<path class="st8" d="M35.9,39.7c0,0,8.7-0.5,8.7,8.5c0,9,0.8,24.3,6.6,28.7c5.7,4.4,16.9,12.6,16.9,12.6l-5.7,7.4
			c0,0-22.4-9.3-26.8-13.4c-4.4-4.1-7.1-33-6.3-37.4C30.2,41.6,32.1,38.6,35.9,39.7z"/>
	</g>
	<g>
		
			<linearGradient id="SVGID_5_" gradientUnits="userSpaceOnUse" x1="-3200.876" y1="64.5967" x2="-3231.4607" y2="102.4639" gradientTransform="matrix(-1 0 0 1 -3141.728 0)">
			<stop  offset="0" style="stop-color:#000000;stop-opacity:0"/>
			<stop  offset="8.061235e-02" style="stop-color:#010708;stop-opacity:8.576000e-02"/>
			<stop  offset="0.2053" style="stop-color:#031B1E;stop-opacity:0.2184"/>
			<stop  offset="0.3585" style="stop-color:#073B41;stop-opacity:0.3814"/>
			<stop  offset="0.5342" style="stop-color:#0C6773;stop-opacity:0.5683"/>
			<stop  offset="0.7291" style="stop-color:#12A0B2;stop-opacity:0.7756"/>
			<stop  offset="0.9373" style="stop-color:#1AE4FE;stop-opacity:0.9971"/>
			<stop  offset="0.94" style="stop-color:#1AE5FF"/>
		</linearGradient>
		<path class="st9" d="M115.4,81.3l-20.8-35c0,0-40.8,0.4-52.8,29.5l-1.1,28l29.1,1.1L115.4,81.3z"/>
		<g>
			
				<linearGradient id="SVGID_6_" gradientUnits="userSpaceOnUse" x1="-3201.8262" y1="128.0837" x2="-3192.6777" y2="144.4061" gradientTransform="matrix(-0.9998 1.740000e-02 1.740000e-02 0.9998 -3129.4287 27.4674)">
				<stop  offset="0" style="stop-color:#2CE7C7"/>
				<stop  offset="1" style="stop-color:#005BFF"/>
			</linearGradient>
			<path class="st10" d="M51,105.8l41.1-0.7c0.6,0,1.1-0.5,1.1-1.1l0,0c0-0.6-0.5-1.1-1.1-1.1l-41.1,0.7c-0.6,0-1.1,0.5-1,1.1l0,0
				C49.9,105.4,50.4,105.8,51,105.8z"/>
			<g>
				
					<linearGradient id="SVGID_7_" gradientUnits="userSpaceOnUse" x1="-3222.2422" y1="111.7142" x2="-3203.2625" y2="145.5774" gradientTransform="matrix(-0.9998 1.740000e-02 1.740000e-02 0.9998 -3129.4287 27.4674)">
					<stop  offset="0" style="stop-color:#2CE7C7"/>
					<stop  offset="1" style="stop-color:#005BFF"/>
				</linearGradient>
				<path class="st11" d="M63.8,104.2L75,80.8c0.2-0.3,0.5-0.5,0.8-0.5l37.5-0.7c0.7,0,1.2,0.7,0.9,1.3L103,104.4
					c-0.2,0.3-0.5,0.5-0.8,0.5l-37.5,0.7C64,105.6,63.5,104.9,63.8,104.2z"/>
				
					<linearGradient id="SVGID_8_" gradientUnits="userSpaceOnUse" x1="-3230.3689" y1="94.0161" x2="-3212.8911" y2="135.2528" gradientTransform="matrix(-0.9998 1.740000e-02 1.740000e-02 0.9998 -3129.4287 27.4674)">
					<stop  offset="0" style="stop-color:#FFFFFF"/>
					<stop  offset="1" style="stop-color:#E6E8EC"/>
				</linearGradient>
				<path class="st12" d="M65.7,104.2l11.2-23.4c0.2-0.3,0.5-0.5,0.8-0.5l37.5-0.7c0.7,0,1.2,0.7,0.9,1.3l-11.2,23.4
					c-0.2,0.3-0.5,0.5-0.8,0.5l-37.5,0.7C65.9,105.6,65.4,104.8,65.7,104.2z"/>
			</g>
		</g>
	</g>
</g>
<path class="st0" d="M72.5,13.6c0,0-0.6,8.7-9,10.2C55,25.3,53.8,34,44.2,33.1c-9.6-0.9,7.2-26.2,7.2-26.2l11.4-4.2L72.5,13.6z"/>
</svg>
