<?xml version="1.0" encoding="utf-8"?>
<!-- Generator: Adobe Illustrator 22.1.0, SVG Export Plug-In . SVG Version: 6.00 Build 0)  -->
<svg version="1.1" id="Capa_1" xmlns="http://www.w3.org/2000/svg" xmlns:xlink="http://www.w3.org/1999/xlink" x="0px" y="0px"
	 viewBox="0 0 53.3 36.7" style="enable-background:new 0 0 53.3 36.7;" xml:space="preserve">
<style type="text/css">
	.st0{fill:#FD4101;}
	.st1{fill:#6B40EA;}
</style>
<path class="st0" d="M44.5,12.6H44C43.9,5.6,38.3,0,31.3,0c-4.6,0-8.7,2.5-10.9,6.2C19.8,6.1,19.2,6,18.6,6c-4.2,0-7.8,2.8-9,6.6
	H8.8c-4.9,0-8.8,4-8.8,8.8c0,4.9,4,8.8,8.8,8.8h35.6c4.9,0,8.8-4,8.8-8.8C53.3,16.6,49.3,12.6,44.5,12.6z"/>
<path class="st1" d="M18.6,27l7.8,9.6c0.2,0.2,0.5,0.2,0.7,0l7.8-9.6c0.2-0.3,0-0.7-0.3-0.7h-2.1V18H21.1v8.3h-2.2
	C18.6,26.3,18.4,26.7,18.6,27z"/>
</svg>
