<?xml version="1.0" encoding="utf-8"?>
<!-- Generator: Adobe Illustrator 22.1.0, SVG Export Plug-In . SVG Version: 6.00 Build 0)  -->
<svg version="1.1" id="Capa_1" xmlns="http://www.w3.org/2000/svg" xmlns:xlink="http://www.w3.org/1999/xlink" x="0px" y="0px"
	 viewBox="0 0 211.4 112.3" style="enable-background:new 0 0 211.4 112.3;" xml:space="preserve">
<style type="text/css">
	.st0{fill:#A68EF3;}
	.st1{fill:#FBC93B;}
</style>
<g>
	<g>
		<path class="st0" d="M110.2,23c0,0.9-0.7,1.7-1.7,1.7c-0.9,0-1.7-0.7-1.7-1.7c0-0.9,0.7-1.7,1.7-1.7S110.2,22.1,110.2,23z"/>
		<path class="st0" d="M149.2,81.5c0,0.9-0.7,1.7-1.7,1.7c-0.9,0-1.7-0.7-1.7-1.7c0-0.9,0.7-1.7,1.7-1.7S149.2,80.6,149.2,81.5z"/>
		<path class="st0" d="M159,11.6c0,0.9-0.7,1.7-1.7,1.7c-0.9,0-1.7-0.7-1.7-1.7s0.7-1.7,1.7-1.7C158.3,9.9,159,10.6,159,11.6z"/>
		<path class="st0" d="M132.5,62.8c0,0.5-0.4,0.9-0.9,0.9s-0.9-0.4-0.9-0.9s0.4-0.9,0.9-0.9C132.1,61.9,132.5,62.3,132.5,62.8z"/>
		<path class="st0" d="M59.7,55c0,0.5-0.4,0.9-0.9,0.9s-0.9-0.4-0.9-0.9s0.4-0.9,0.9-0.9S59.7,54.5,59.7,55z"/>
		<path class="st0" d="M197.2,85.3c0,0.5-0.4,1-1,1c-0.5,0-1-0.4-1-1c0-0.5,0.4-1,1-1C196.7,84.4,197.2,84.8,197.2,85.3z"/>
		<path class="st1" d="M203,96.6c0,0.5-0.4,1-1,1c-0.5,0-1-0.4-1-1c0-0.5,0.4-1,1-1S203,96,203,96.6z"/>
		<circle class="st1" cx="184.5" cy="75.9" r="0.5"/>
		<circle class="st1" cx="136.9" cy="92.5" r="0.5"/>
		<circle class="st1" cx="101.7" cy="46.3" r="0.5"/>
		<circle class="st1" cx="145" cy="35.2" r="0.5"/>
		<circle class="st1" cx="210.9" cy="111.8" r="0.5"/>
		<circle class="st1" cx="43.5" cy="62.1" r="0.5"/>
		<circle class="st1" cx="30.5" cy="97.1" r="0.5"/>
		<path class="st0" d="M18,49.4c0,0.5-0.4,1-1,1c-0.5,0-1-0.4-1-1c0-0.5,0.4-1,1-1S18,48.8,18,49.4z"/>
		<path class="st0" d="M210.8,24.6c0,0.5-0.4,1-1,1c-0.5,0-1-0.4-1-1s0.4-1,1-1C210.4,23.6,210.8,24,210.8,24.6z"/>
		<path class="st0" d="M45,101.1c0,0.5-0.4,1-1,1c-0.5,0-1-0.4-1-1c0-0.5,0.4-1,1-1C44.6,100.2,45,100.6,45,101.1z"/>
	</g>
	<g>
		<g>
			<circle class="st0" cx="66.1" cy="57.4" r="1.1"/>
			<path class="st0" d="M40,19.8c0-0.6,0.5-1.1,1.1-1.1s1.1,0.5,1.1,1.1s-0.5,1.1-1.1,1.1C40.4,20.9,40,20.4,40,19.8z"/>
			<path class="st0" d="M33.6,64.8c0-0.6,0.5-1.1,1.1-1.1s1.1,0.5,1.1,1.1s-0.5,1.1-1.1,1.1C34.1,65.8,33.6,65.4,33.6,64.8z"/>
			<path class="st0" d="M50.7,31.8c0-0.3,0.3-0.6,0.6-0.6s0.6,0.3,0.6,0.6c0,0.3-0.3,0.6-0.6,0.6C50.9,32.4,50.7,32.1,50.7,31.8z"/>
			<circle class="st0" cx="98.1" cy="36.9" r="0.6"/>
			<path class="st0" d="M9.1,17.4c0-0.3,0.3-0.6,0.6-0.6s0.6,0.3,0.6,0.6c0,0.3-0.3,0.6-0.6,0.6C9.4,18,9.1,17.7,9.1,17.4z"/>
			<path class="st1" d="M5.4,10.1c0-0.3,0.3-0.6,0.6-0.6c0.3,0,0.6,0.3,0.6,0.6S6.3,10.7,6,10.7C5.6,10.7,5.4,10.5,5.4,10.1z"/>
			<path class="st1" d="M16.9,23.4c0-0.2,0.1-0.3,0.3-0.3s0.3,0.1,0.3,0.3c0,0.2-0.1,0.3-0.3,0.3S16.9,23.6,16.9,23.4z"/>
			<circle class="st1" cx="47.9" cy="12.7" r="0.3"/>
			<circle class="st1" cx="70.5" cy="42.4" r="0.3"/>
			<path class="st1" d="M42.3,49.6c0-0.2,0.1-0.3,0.3-0.3s0.3,0.1,0.3,0.3s-0.1,0.3-0.3,0.3C42.5,49.9,42.3,49.8,42.3,49.6z"/>
			<circle class="st1" cx="0.3" cy="0.3" r="0.3"/>
			<circle class="st1" cx="107.9" cy="32.3" r="0.3"/>
			<path class="st1" d="M115.9,9.8c0-0.2,0.1-0.3,0.3-0.3c0.2,0,0.3,0.1,0.3,0.3s-0.1,0.3-0.3,0.3C116.1,10.1,115.9,10,115.9,9.8z"
				/>
			<path class="st0" d="M124.3,40.5c0-0.3,0.3-0.6,0.6-0.6s0.6,0.3,0.6,0.6s-0.3,0.6-0.6,0.6S124.3,40.8,124.3,40.5z"/>
			<circle class="st0" cx="1" cy="56.4" r="0.6"/>
			<path class="st0" d="M106.9,7.2c0-0.3,0.3-0.6,0.6-0.6c0.3,0,0.6,0.3,0.6,0.6c0,0.3-0.3,0.6-0.6,0.6
				C107.2,7.8,106.9,7.5,106.9,7.2z"/>
		</g>
	</g>
</g>
</svg>
