<?xml version="1.0" encoding="utf-8"?>
<!-- Generator: Adobe Illustrator 22.1.0, SVG Export Plug-In . SVG Version: 6.00 Build 0)  -->
<svg version="1.1" id="Capa_1" xmlns="http://www.w3.org/2000/svg" xmlns:xlink="http://www.w3.org/1999/xlink" x="0px" y="0px"
	 viewBox="0 0 57.4 42.8" style="enable-background:new 0 0 57.4 42.8;" xml:space="preserve">
<style type="text/css">
	.st0{fill:url(#SVGID_1_);}
	.st1{fill:url(#SVGID_2_);}
	.st2{fill:url(#SVGID_3_);}
</style>
<g>
	<linearGradient id="SVGID_1_" gradientUnits="userSpaceOnUse" x1="11.8531" y1="86.4411" x2="46.5764" y2="-40.6464">
		<stop  offset="0" style="stop-color:#1AE5FF"/>
		<stop  offset="0.2589" style="stop-color:#64E8F9"/>
		<stop  offset="0.7043" style="stop-color:#EAEEEE"/>
	</linearGradient>
	<path class="st0" d="M11.7,22.1c-1.5,1.5-1.5,3.8,0,5.3c1.5,1.5,3.8,1.5,5.3,0c6.4-6.4,16.9-6.4,23.4,0c1.5,1.5,3.8,1.5,5.3,0
		c1.5-1.5,1.5-3.8,0-5.3C36.3,12.7,21.1,12.7,11.7,22.1z"/>
	<linearGradient id="SVGID_2_" gradientUnits="userSpaceOnUse" x1="9.1495" y1="85.7028" x2="43.8731" y2="-41.3858">
		<stop  offset="0" style="stop-color:#1AE5FF"/>
		<stop  offset="0.2589" style="stop-color:#64E8F9"/>
		<stop  offset="0.7043" style="stop-color:#EAEEEE"/>
	</linearGradient>
	<path class="st1" d="M56.3,11.4c-15.2-15.2-40-15.2-55.2,0c-1.5,1.5-1.5,3.8,0,5.3c1.5,1.5,3.8,1.5,5.3,0
		C18.7,4.4,38.7,4.4,51,16.7c1.5,1.5,3.8,1.5,5.3,0C57.8,15.3,57.8,12.9,56.3,11.4z"/>
	<linearGradient id="SVGID_3_" gradientUnits="userSpaceOnUse" x1="14.7523" y1="87.2329" x2="49.4754" y2="-39.8538">
		<stop  offset="0" style="stop-color:#1AE5FF"/>
		<stop  offset="0.2589" style="stop-color:#64E8F9"/>
		<stop  offset="0.7043" style="stop-color:#EAEEEE"/>
	</linearGradient>
	<path class="st2" d="M23.7,30.2c-2.9,2.9-2.9,7.6,0,10.5c2.9,2.9,7.6,2.9,10.5,0c2.9-2.9,2.9-7.6,0-10.5
		C31.3,27.3,26.6,27.3,23.7,30.2z"/>
</g>
</svg>
